<?xml version="1.0" encoding="UTF-8"?>
<svg width="64px" height="64px" viewBox="0 0 64 64" version="1.1" xmlns="http://www.w3.org/2000/svg" xmlns:xlink="http://www.w3.org/1999/xlink">
    <title>编组</title>
    <g id="V1.15.2-专业八电极纸字版报告" stroke="none" stroke-width="1" fill="none" fill-rule="evenodd">
        <g id="人体成分分析报告-轻牛健康" transform="translate(-1106.000000, -30.000000)" fill-rule="nonzero">
            <g id="编组" transform="translate(1106.000000, 30.000000)">
                <rect id="矩形" fill="#FFFFFF" x="-3.11014706e-12" y="-1.17747082e-13" width="63.71" height="63.71" rx="12"></rect>
                <path d="M29.6986615,10.1813481 C18.2738677,11.3031125 9.67888426,21.0962883 10.0492142,32.5700464 C10.419544,44.0438045 19.6281545,53.262347 31.1015067,53.6450452 C37.4847587,53.8104462 51.0108817,51.0782673 52.6832692,51.0721413 C52.554624,49.4058798 54.1780038,35.7021038 53.4918962,29.3556077 C52.8797029,23.6576263 50.0289018,18.4362672 45.5667251,14.8403318 C41.1045484,11.2443964 35.3965716,9.56849112 29.6986615,10.1813481" id="路径" fill="#328FDE"></path>
                <path d="M31.7386067,47.7825 L31.3342933,47.7825 C22.8597883,47.6321622 15.9874497,40.8712958 15.6985572,32.4003822 C15.4096648,23.9294687 21.8054257,16.7161064 30.2499981,15.9887596 L30.2499981,15.9887596 C38.947217,15.066429 46.7495867,21.3587511 47.6906106,30.0539673 C47.9846567,32.8351538 47.629351,37.4051212 47.3965644,40.4068423 C47.3291788,41.2338471 47.2495413,42.2446308 47.2434154,42.5754327 L47.5313356,46.3122692 L43.7822471,46.3122692 C43.4575712,46.349025 42.4529135,46.5083 41.6320346,46.6430712 C38.7895885,47.1208962 34.556549,47.7825 31.7386067,47.7825 Z M31.0157433,23.1071269 C28.8929934,23.3422423 26.9307522,24.3495261 25.5023779,25.9373212 L25.4472442,25.9985808 C23.9776569,27.5550509 23.1335718,29.5987402 23.0764971,31.7386067 C22.9564199,36.5260685 26.7310609,40.50889 31.5180721,40.6457548 C33.5947731,40.7008885 37.7052933,40.0331587 40.2843231,39.6349712 C40.4864798,37.0375635 40.8050298,32.8964135 40.5783692,30.8197125 C40.0612822,26.0526862 35.784162,22.6030422 31.0157433,23.1071269 L31.0157433,23.1071269 Z" id="形状" fill="#FFFFFF"></path>
            </g>
        </g>
    </g>
</svg>